<svg id="Layer_1" data-name="Layer 1" xmlns="http://www.w3.org/2000/svg" viewBox="0 0 100 100"><rect x="-0.63" y="-0.48" width="101.27" height="100.96" style="fill:#d50001"/><path d="M94.31,34.54h-.59v-.28h1.51v.28h-.59v1.51h-.33Z" style="fill:#fff"/><path d="M97.24,36.05V34.86l-.58,1H96.5l-.58-1v1.17H95.6V34.26h.28l.7,1.18.69-1.18h.28v1.79Z" style="fill:#fff"/><path d="M76.48,50.19H92.1v6.64H76.83a11,11,0,0,1-5.75-1.61A10.39,10.39,0,0,1,67.78,52a12.62,12.62,0,0,1-1.86-5.91,11.49,11.49,0,0,1,1-5.88,10,10,0,0,1,2.9-3.57,11.23,11.23,0,0,1,5-2.14,15.3,15.3,0,0,1,2.7-.23h14.6l0,6.42-10.33,0H76.56A4.76,4.76,0,0,0,73.41,42a4.54,4.54,0,0,0-1.17,3.29,5,5,0,0,0,1.49,3.89A4.11,4.11,0,0,0,76.48,50.19Z" style="fill:#fff"/><path d="M37.61,40.19a10,10,0,0,0-2.92-3.6,11.78,11.78,0,0,0-6.95-2.38H6V56.88l6.09,0,15.46,0a11.06,11.06,0,0,0,5.59-1.49l.22-.13A10.35,10.35,0,0,0,36.7,52a12.59,12.59,0,0,0,1.87-5.93A11.42,11.42,0,0,0,37.61,40.19Zm-6.89,9a4.2,4.2,0,0,1-2.18,1,6.22,6.22,0,0,1-.86.06H12.07V40.7H27.89A5.14,5.14,0,0,1,31,42a4.27,4.27,0,0,1,1.18,3.29A5,5,0,0,1,30.72,49.15Z" style="fill:#fff"/><path d="M69.79,43.86a7.22,7.22,0,0,0,3,7.75A7.73,7.73,0,0,0,77,52.85H89.61v1.27H77a8.6,8.6,0,0,1-4.8-1.34,8.49,8.49,0,0,1-3-3.38,9.7,9.7,0,0,1-.67-5.74A7.91,7.91,0,0,1,72.84,38a7.73,7.73,0,0,1,3.5-1.06H89.61v1.27H76.34a7.51,7.51,0,0,0-3,.94A6.77,6.77,0,0,0,69.79,43.86Z" style="fill:#d50001"/><path d="M64.9,56.88H45.31a11.59,11.59,0,0,1-2.05-.15,2.14,2.14,0,0,1-.63-.22l-.09-.06A4.13,4.13,0,0,1,40.79,53V34.21h6.5l0,14.8v.29c0,.66.58.88,1.23.88H64.9Z" style="fill:#fff"/><path d="M62.44,53.18v1.27H46.55a4.27,4.27,0,0,1-1.34-.3,3,3,0,0,1-1-.67,3.66,3.66,0,0,1-1-2.67V36.7H44.4V50.8a2.38,2.38,0,0,0,.66,1.75,2.08,2.08,0,0,0,1.24.56,5.17,5.17,0,0,0,.91.07Z" style="fill:#d50001"/><path d="M35.71,42.24a8.45,8.45,0,0,0-2.62-3.39,10.13,10.13,0,0,0-4.31-1.78,14.31,14.31,0,0,0-2.49-.23l-17.84,0V54.18l18.4,0a12.31,12.31,0,0,0,4.37-.84A8.17,8.17,0,0,0,34.38,51a8.81,8.81,0,0,0,1.92-5.14v-.37A8.15,8.15,0,0,0,35.71,42.24ZM9.69,52.9V38.1l16.44,0a12.71,12.71,0,0,1,3.38.35,6.54,6.54,0,0,1,2.84,1.4A7.34,7.34,0,0,1,35,46.31,7.43,7.43,0,0,1,32.7,50.8a6.91,6.91,0,0,1-1.94,1.33,11.26,11.26,0,0,1-3.88.74Z" style="fill:#d50001"/><path d="M6.07,62.43H7.55a1.66,1.66,0,1,1,0,3.3H6.07Zm1.44,2.68a1,1,0,1,0,0-2H6.82v2Z" style="fill:#fff"/><path d="M14.3,65.12v.61H11.78v-3.3h2.46v.62H12.53v.71H14v.6H12.53v.76Z" style="fill:#fff"/><path d="M16.77,62.43h.75v2.68h1.64v.62H16.77Z" style="fill:#fff"/><path d="M21.44,62.43h.76v2.68h1.63v.62H21.44Z" style="fill:#fff"/><path d="M28.3,65H26.78l-.29.7h-.77l1.45-3.3h.75l1.46,3.3h-.79Zm-.24-.58-.52-1.27L27,64.45Z" style="fill:#fff"/><path d="M34.76,62.43h.76v2.68h1.63v.62H34.76Z" style="fill:#fff"/><path d="M42,65.12v.61H39.44v-3.3H41.9v.62H40.19v.71H41.7v.6H40.19v.76Z" style="fill:#fff"/><path d="M46.57,65H45.06l-.29.7H44l1.45-3.3h.75l1.46,3.3h-.8Zm-.23-.58-.52-1.27-.52,1.27Z" style="fill:#fff"/><path d="M49.86,62.43h1.48a1.66,1.66,0,1,1,0,3.3H49.86Zm1.44,2.68a1,1,0,1,0,0-2h-.69v2Z" style="fill:#fff"/><path d="M58.09,65.12v.61H55.57v-3.3H58v.62H56.32v.71h1.51v.6H56.32v.76Z" style="fill:#fff"/><path d="M62.64,65.73,62,64.81h-.7v.92h-.75v-3.3H62c.87,0,1.42.46,1.42,1.2a1.07,1.07,0,0,1-.67,1l.73,1.06Zm-.71-2.67h-.62v1.15h.62c.46,0,.69-.22.69-.58S62.39,63.06,61.93,63.06Z" style="fill:#fff"/><path d="M65.59,65.41l.26-.58a1.83,1.83,0,0,0,1.07.35c.45,0,.63-.15.63-.36,0-.61-1.9-.19-1.9-1.42,0-.56.45-1,1.38-1a2.18,2.18,0,0,1,1.13.29l-.23.58A1.81,1.81,0,0,0,67,63c-.44,0-.62.17-.62.38,0,.6,1.9.18,1.9,1.4,0,.55-.45,1-1.38,1A2.36,2.36,0,0,1,65.59,65.41Z" style="fill:#fff"/><path d="M73.66,64.08A1.79,1.79,0,0,1,76.77,63l-.49.45a1,1,0,0,0-.82-.38,1.06,1.06,0,0,0,0,2.11,1,1,0,0,0,.82-.39l.49.45a1.79,1.79,0,0,1-3.11-1.12Z" style="fill:#fff"/><path d="M79.14,62.43h.75v2.68h1.64v.62H79.14Z" style="fill:#fff"/><path d="M83.75,64.28V62.43h.75v1.82c0,.63.27.89.73.89s.72-.26.72-.89V62.43h.75v1.85a1.48,1.48,0,1,1-3,0Z" style="fill:#fff"/><path d="M92.3,64.83c0,.57-.45.9-1.31.9H89.31v-3.3H90.9c.82,0,1.24.35,1.24.86a.8.8,0,0,1-.44.73A.8.8,0,0,1,92.3,64.83ZM90.06,63v.78h.75c.37,0,.57-.14.57-.4s-.2-.38-.57-.38Zm1.48,1.74c0-.28-.21-.41-.6-.41h-.88v.82h.88C91.33,65.16,91.54,65,91.54,64.75Z" style="fill:#fff"/></svg>