<svg width="20" height="20" viewBox="0 0 20 20" fill="none" xmlns="http://www.w3.org/2000/svg">
<path d="M18.3333 14.1004V16.6004C18.3343 16.8325 18.2867 17.0622 18.1938 17.2749C18.1008 17.4875 17.9644 17.6784 17.7934 17.8353C17.6224 17.9922 17.4205 18.1116 17.2006 18.186C16.9808 18.2603 16.7478 18.288 16.5167 18.2671C13.9524 17.9884 11.4892 17.1122 9.325 15.7087C7.31152 14.4293 5.60445 12.7222 4.325 10.7087C2.91665 8.53474 2.0402 6.05957 1.76667 3.48374C1.74584 3.2533 1.77323 3.02104 1.84708 2.80176C1.92094 2.58248 2.03964 2.38098 2.19564 2.21009C2.35163 2.0392 2.5415 1.90266 2.75316 1.80917C2.96481 1.71569 3.19362 1.66729 3.425 1.66707H5.925C6.32942 1.66309 6.72149 1.80631 7.02813 2.07002C7.33478 2.33373 7.53506 2.69995 7.59167 3.10041C7.69719 3.90046 7.89288 4.68601 8.175 5.44207C8.28712 5.74034 8.31139 6.0645 8.24492 6.37614C8.17846 6.68778 8.02405 6.97383 7.8 7.20041L6.74167 8.25874C7.92796 10.345 9.65538 12.0724 11.7417 13.2587L12.8 12.2004C13.0266 11.9764 13.3126 11.8219 13.6243 11.7555C13.9359 11.689 14.2601 11.7133 14.5583 11.8254C15.3144 12.1075 16.0999 12.3032 16.9 12.4087C17.3048 12.4658 17.6745 12.6697 17.9388 12.9817C18.2031 13.2936 18.3435 13.6917 18.3333 14.1004Z" stroke="white" stroke-width="2" stroke-linecap="round" stroke-linejoin="round"/>
</svg>
